<svg role="img" version="1.1" xmlns="http://www.w3.org/2000/svg" xmlns:xlink="http://www.w3.org/1999/xlink" x="0px" y="0px" xml:space="preserve" aria-hidden="{{ include.hidden }}"
	width="560px" height="560px" viewBox="0 0 560 560"
    aria-labelledby="faviconTitle--{{ include.id | strip }} faviconDesc--{{ include.id | strip }}"
    id="favicon--{{ include.id | strip }}" class='{{ include.iconclass | strip }}'>
    <title id="faviconTitle--{{ include.id | strip }}">{{ site.data.t.[page.lang].icons.Favicon.iconTitle }}</title>
    <desc id="faviconDesc--{{ include.id | strip }}">{{ site.data.t.[page.lang].icons.Favicon.iconDesc }}</desc>
	<style type="text/css">
	<![CDATA[
		.st0{fill-rule:evenodd;clip-rule:evenodd;}
	]]>
	</style>
	<g id="ojo--{{ include.id | strip }}">
		<g id="ojo-abajo--{{ include.id | strip }}">
			<path d="M103.228,308.897c0,0,0.34,0.36,0.977,1.035c0.319,0.337,0.711,0.754,1.173,1.243c0.479,0.468,1.029,1.007,1.646,1.609
				c1.236,1.196,2.794,2.598,4.638,4.117c0.906,0.779,1.948,1.515,3,2.339c1.109,0.752,2.212,1.625,3.461,2.396
				c2.438,1.626,5.207,3.185,8.202,4.672c3.002,1.477,6.268,2.819,9.72,3.972c3.457,1.145,7.119,2.02,10.875,2.671
				c3.758,0.642,7.626,0.98,11.493,0.98c3.866,0.032,7.734-0.27,11.485-0.906c3.747-0.649,7.396-1.545,10.82-2.752
				c3.427-1.195,6.639-2.646,9.565-4.249c0.367-0.198,0.732-0.395,1.094-0.591c0.35-0.211,0.698-0.422,1.042-0.63
				c0.705-0.429,1.398-0.851,2.08-1.266c1.289-0.885,2.583-1.665,3.742-2.57c0.588-0.438,1.165-0.865,1.729-1.283
				c0.544-0.443,1.076-0.876,1.594-1.299c1.06-0.821,1.995-1.682,2.887-2.478c0.912-0.777,1.68-1.593,2.434-2.307
				c0.759-0.709,1.412-1.404,1.997-2.037c1.195-1.245,2.086-2.27,2.688-2.976c0.608-0.701,0.933-1.075,0.933-1.075
				s-0.279,0.408-0.803,1.174c-0.525,0.767-1.273,1.911-2.364,3.265c-0.527,0.692-1.117,1.455-1.813,2.241
				c-0.683,0.796-1.411,1.672-2.267,2.533c-0.84,0.878-1.723,1.827-2.733,2.747c-0.5,0.466-1.013,0.943-1.538,1.433
				c-0.549,0.463-1.111,0.937-1.685,1.419c-1.122,0.994-2.424,1.899-3.715,2.901c-0.656,0.468-1.336,0.905-2.02,1.37
				c-0.351,0.234-0.706,0.47-1.062,0.708c-0.366,0.219-0.734,0.439-1.104,0.661c-2.955,1.793-6.223,3.471-9.772,4.788
				c-3.54,1.332-7.312,2.444-11.232,3.126c-3.916,0.698-7.957,1.056-11.996,1.05c-4.04-0.035-8.071-0.426-11.979-1.129
				c-3.912-0.69-7.679-1.769-11.234-3.03c-3.558-1.265-6.863-2.828-9.889-4.481c-3.03-1.65-5.77-3.429-8.158-5.248
				c-1.223-0.87-2.31-1.817-3.374-2.671c-1.008-0.924-2.003-1.751-2.862-2.613c-1.761-1.677-3.182-3.245-4.314-4.567
				c-0.556-0.668-1.053-1.266-1.484-1.784c-0.403-0.539-0.747-0.997-1.024-1.368C103.525,309.294,103.228,308.897,103.228,308.897z"
				 />
		</g>
		<g id="ojo-arriba--{{ include.id | strip }}">
			<path d="M238.677,230.135c0,0-0.334-0.743-0.962-2.136c-0.314-0.696-0.701-1.556-1.157-2.565
				c-0.233-0.499-0.458-1.061-0.747-1.613c-0.295-0.545-0.609-1.125-0.94-1.738c-0.672-1.221-1.373-2.594-2.214-4.053
				c-0.908-1.43-1.89-2.976-2.939-4.627c-1.083-1.629-2.381-3.263-3.668-5.042c-0.623-0.908-1.409-1.72-2.144-2.609
				c-0.75-0.876-1.517-1.774-2.301-2.69c-0.795-0.906-1.697-1.747-2.567-2.65c-0.894-0.88-1.751-1.833-2.72-2.7
				c-0.978-0.858-1.971-1.73-2.98-2.616c-0.506-0.441-1.017-0.886-1.53-1.334c-0.543-0.412-1.091-0.826-1.642-1.243
				c-1.102-0.836-2.219-1.683-3.351-2.541c-1.189-0.774-2.393-1.559-3.61-2.351c-0.609-0.396-1.222-0.794-1.837-1.194
				c-0.643-0.354-1.289-0.71-1.938-1.068c-1.302-0.709-2.606-1.448-3.941-2.152c-2.762-1.216-5.495-2.647-8.453-3.624
				c-0.729-0.27-1.461-0.54-2.195-0.811c-0.731-0.281-1.469-0.547-2.232-0.741c-1.514-0.431-3.034-0.865-4.561-1.3
				c-0.758-0.244-1.544-0.373-2.324-0.537l-2.347-0.478l-2.355-0.48c-0.789-0.144-1.591-0.21-2.387-0.319
				c-1.597-0.191-3.194-0.414-4.798-0.581l-4.84-0.223l-1.211-0.056l-0.578-0.026l-0.611,0.019l-2.442,0.074l-2.439,0.074
				l-1.218,0.042l-1.196,0.127c-1.596,0.169-3.189,0.338-4.777,0.506c-1.583,0.222-3.152,0.556-4.721,0.827
				c-6.238,1.253-12.299,3.042-17.843,5.541c-0.7,0.296-1.397,0.591-2.091,0.885c-0.682,0.318-1.342,0.677-2.009,1.011
				c-1.327,0.685-2.654,1.34-3.945,2.03c-1.253,0.757-2.493,1.505-3.718,2.245c-0.606,0.38-1.236,0.716-1.812,1.125
				c-0.578,0.407-1.152,0.811-1.722,1.213c-1.135,0.811-2.28,1.578-3.362,2.394c-1.052,0.856-2.087,1.699-3.106,2.528
				c-0.51,0.415-1.015,0.826-1.516,1.233c-0.472,0.441-0.939,0.877-1.402,1.311c-0.926,0.867-1.834,1.717-2.724,2.55
				c-1.728,1.719-3.272,3.477-4.802,5.09c-1.4,1.728-2.729,3.368-3.977,4.908c-1.141,1.623-2.208,3.142-3.196,4.546
				c-0.985,1.406-1.731,2.801-2.49,4.007c-1.54,2.403-2.452,4.457-3.178,5.8c-0.699,1.359-1.072,2.083-1.072,2.083
				s0.362-0.73,1.042-2.098c0.707-1.354,1.591-3.423,3.098-5.85c0.743-1.217,1.471-2.626,2.438-4.049
				c0.97-1.421,2.018-2.959,3.139-4.602c1.23-1.563,2.54-3.227,3.92-4.981c1.512-1.641,3.039-3.429,4.75-5.182
				c0.883-0.85,1.784-1.718,2.702-2.603c0.46-0.442,0.924-0.888,1.392-1.338c0.498-0.417,1-0.838,1.506-1.263
				c1.014-0.849,2.044-1.712,3.091-2.589c1.078-0.837,2.219-1.626,3.351-2.459c0.569-0.413,1.142-0.829,1.719-1.247
				c0.575-0.42,1.205-0.768,1.81-1.16c1.225-0.764,2.465-1.537,3.718-2.318c1.292-0.714,2.622-1.396,3.952-2.105
				c0.669-0.347,1.331-0.719,2.016-1.051c0.697-0.307,1.396-0.615,2.1-0.924c5.568-2.606,11.674-4.505,17.982-5.866
				c1.587-0.298,3.17-0.658,4.78-0.907c1.622-0.195,3.249-0.391,4.878-0.586l1.224-0.146l1.218-0.06l2.438-0.109l2.44-0.109
				l0.61-0.027l0.643,0.017l1.231,0.039l4.927,0.157c1.635,0.146,3.264,0.349,4.894,0.521c0.813,0.1,1.631,0.157,2.437,0.292
				l2.407,0.454l2.4,0.454c0.798,0.156,1.603,0.277,2.378,0.515c1.565,0.422,3.124,0.842,4.674,1.26
				c0.782,0.188,1.54,0.448,2.291,0.724c0.753,0.266,1.505,0.531,2.254,0.795c3.038,0.959,5.851,2.376,8.696,3.584
				c1.377,0.7,2.722,1.437,4.065,2.144c0.67,0.357,1.337,0.713,2,1.067c0.636,0.4,1.269,0.798,1.899,1.194
				c1.258,0.795,2.503,1.581,3.733,2.358c1.172,0.862,2.33,1.714,3.472,2.554c0.571,0.42,1.139,0.838,1.702,1.253
				c0.534,0.452,1.063,0.9,1.589,1.345c1.049,0.895,2.082,1.776,3.097,2.642c1.007,0.876,1.902,1.84,2.833,2.731
				c0.906,0.915,1.845,1.768,2.675,2.687c0.819,0.93,1.621,1.84,2.404,2.729c0.769,0.902,1.588,1.729,2.243,2.651
				c1.352,1.809,2.709,3.474,3.848,5.135c1.104,1.686,2.138,3.263,3.094,4.722c0.897,1.503,1.655,2.935,2.374,4.203
				c0.354,0.638,0.69,1.241,1.006,1.809c0.306,0.569,0.532,1.113,0.775,1.613c0.469,1.003,0.869,1.856,1.193,2.548
				c0.647,1.384,0.993,2.122,0.993,2.122L238.677,230.135z" />
		</g>
		<path id="ojo-dcha--{{ include.id | strip }}" class="st0" d="M228.601,276.47c-0.61,4.37-1.764,8.55-3.683,12.41c2.692,1.653,5.029,3.746,6.693,6.736
			c2.566,4.613,2.063,11.615,0.176,16.389c-1.212,3.068-2.421,5.687-3.709,8.104c-0.296,0.68-0.659,1.23-0.828,1.484
			c-0.54,0.921-0.54,0.921-0.75,1.313c-0.671,1.085-0.233,0.446-1.577,2.304c-8.392,11.571-27.746,23.845-44.687,28.318
			c-27.791,7.338-53.702,2.834-77.845-12.613c16.692,12.999,35.407,19.152,56.568,19.018c50.265-0.319,100.728-47.943,91.006-104.938
			c-1.563-9.166-3.859-17.741-8.577-25.985c-7.133,2.116-11.618,4.851-16.666,7.695c-0.913,0.514-1.36,3.159-0.952,4.493
			c0.203,0.663,0.396,1.326,0.587,1.99c4.065,7.406,4.903,16.1,4.829,24.813c-0.007,0.845-0.032,1.685-0.067,2.521" />
		<path id="ojo-izq--{{ include.id | strip }}" class="st0" d="M74.43,303.743c0.166,0.208,0.322,0.424,0.447,0.668c0.244,0.474,0.468,0.964,0.654,1.467
			c9.625-9.065,13.285-9.094,12.04-12.002c-4.392-10.252-6.432-20.776-6.452-32.2c-0.008-4.609,1.134-9.353,2.297-13.738
			c1.285-4.842,3.862-9.342,6.073-14.443c-3.526-2.026-6.169-3.219-9.78-5.684c-4.935-3.368-2.726-4.11-6.006,3.03
			c-7.52,21.509-9.077,42.159-2.235,64.009" />
		<path id="ojo-centro--{{ include.id | strip }}" class="st0" d="M126.146,252.522c7.123-14.26,21.899-21.623,36.501-18.762
			c14.25,2.793,24.466,14.252,25.615,28.729c1.187,14.946-7.955,28.889-22.417,34.19c-12.845,4.709-27.884,0.575-35.788-10.191
			c9.02-3.264,14.804-9.205,13.424-19.28C142.196,257.803,135.587,253.541,126.146,252.522z" />
	</g>
	<path id="web--{{ include.id | strip }}" class="st0" d="M528.738,235.879c-18.953-8.847-36.94-5.515-53.127,6.68
		c-12.887,9.708-23.718,21.879-36.215,32.137c-22.02,18.076-46.051,32.876-71.807,44.941c-1.373,0.643-3.095,2.295-4.498,0.707
		c-1.062-1.203,0.236-2.842,0.867-4.156c3.171-6.609,6.369-13.206,9.613-19.78c11.666-23.638,22.664-47.531,28.693-73.376
		c5.001-21.437,8.826-43.031,10.473-65.036c1.316-17.569,1.24-34.958-3.262-52.086c-4.242-16.135-13.986-26.997-30.643-30.89
		c-1.098-0.256-2.151-0.576-3.176-0.965c-0.27-0.028-0.521-0.082-0.738-0.177c-2.97-0.417-5.917-0.818-8.946-0.658
		c-2.452,0.13-4.887,0.414-7.329,0.615c-0.194,0.06-0.403,0.098-0.633,0.11c-1.4,0.479-2.84,0.85-4.308,1.217
		c-15.989,4-26.044,13.636-28.343,30.356c-0.859,6.254-1.714,12.564-1.793,18.858c-0.24,19.021,2.211,37.869,4.481,56.704
		c2.372,19.675,5.206,39.298,4.46,59.205c-0.13,3.462-0.443,6.855-2.559,10.109c-0.824-2.86-1.621-5.728-2.475-8.579
		c-8.451-28.224-22.766-52.899-45.021-72.452c-37.292-32.762-80.998-45.479-130.061-40.282c-20.367,2.157-39.375,8.359-55.815,21.119
		c-1.588,1.233-3.54,2.415-2.51,4.829c0.968,2.27,3.077,1.296,4.842,1.268c20.808-0.342,41.626-1.392,62.345,1.795
		c20.638,3.174,40.595,8.563,57.906,20.593c23.77,16.521,40.222,38.841,48.19,66.756c8.477,29.697,5.732,58.111-12.533,83.933
		c-10.169,14.376-23.453,25.433-38.51,34.351c-18.616,11.027-38.548,18.778-60.356,18.997c-29.18,0.294-53.424-11.615-72.407-33.564
		c-29.214-33.776-36.493-73.555-30.116-116.542c3.486-23.499,12.154-45.292,24.056-65.818c1.131-1.95,3.006-4.272,0.836-6.349
		c-2.189-2.095-3.993,0.574-5.64,1.554c-18.246,10.856-31.982,26.066-41.592,44.838C6.278,255.31,3.644,305.547,21.684,356.505
		C37.507,401.2,67.95,432.572,112.517,449.6c35.799,13.678,72.85,14.671,110.315,9.974c29.374-3.684,57.886-11.176,85.807-20.853
		c40.725-14.115,79.609-32.386,117.324-53.146c18.822-10.36,37.648-20.773,54.844-33.794c21.516-16.293,42.698-32.882,60.805-53.179
		C559.462,278.592,554.41,247.859,528.738,235.879z" />
</svg>
